<svg width="123" height="124" viewBox="0 0 123 124" fill="none" xmlns="http://www.w3.org/2000/svg">
<g id="Group 7">
<path id="Stroke 1" fill-rule="evenodd" clip-rule="evenodd" d="M5.17997 103.15C0.921312 107.465 0.921312 114.453 5.17997 118.768C7.3093 120.925 10.0999 122 12.8907 122C15.6815 122 18.4721 120.925 20.6014 118.768L56.3932 82.4963L40.9717 66.8862L5.17997 103.15Z" fill="#ECB603"/>
<path id="Stroke 3" fill-rule="evenodd" clip-rule="evenodd" d="M95.3127 35.7241L111.044 27.5931L119.279 11.6762L111.601 4L95.6866 12.2408L87.5388 27.9524L68.405 47.1026L76.1642 54.8743L95.3127 35.7241Z" stroke="#607D8B" stroke-width="5"/>
<path id="Stroke 5" fill-rule="evenodd" clip-rule="evenodd" d="M98.8839 77.4548L97.412 77.3085C94.7451 77.3085 92.2165 77.8581 89.8557 78.7378L44.9915 33.5948C45.8659 31.2195 46.4124 28.6756 46.4124 25.9926L46.2667 24.5119C45.4944 13.0682 36.1236 4 24.5525 4C21.1859 4 18.0308 4.82859 15.1817 6.19952L29.704 20.8098C30.4692 21.5793 30.9939 22.4882 31.3436 23.4487C32.2981 26.044 31.7808 29.0791 29.704 31.1754C28.2831 32.6052 26.4178 33.3235 24.5525 33.3235C23.6927 33.3235 22.8401 33.133 22.0239 32.8248C21.0694 32.4583 20.1658 31.9451 19.4006 31.1684L4.87855 16.5651C3.51587 19.4314 2.6925 22.6056 2.6925 25.9926C2.6925 37.6341 11.7061 47.0613 23.0807 47.8386L24.5527 47.9849C27.2196 47.9849 29.7482 47.4351 32.1089 46.5629L76.9657 91.6988C76.1059 94.0739 75.5594 96.618 75.5594 99.3011L75.7124 100.782C76.4703 112.233 85.8482 121.293 97.4194 121.293C100.786 121.293 103.948 120.48 106.79 119.094L92.2678 104.484C91.5099 103.721 90.978 102.805 90.6136 101.852C89.6592 99.2572 90.1764 96.2148 92.2678 94.1185C93.6741 92.6887 95.5541 91.9704 97.4194 91.9704C98.2794 91.9704 99.1244 92.1536 99.9552 92.4691C100.91 92.8281 101.82 93.3413 102.571 94.1185L117.093 108.729C118.463 105.855 119.279 102.688 119.279 99.3013C119.272 87.6593 110.259 78.2321 98.8839 77.4548Z" stroke="#607D8B" stroke-width="5"/>
</g>
</svg>
