<svg width="122" height="114" viewBox="0 0 122 114" fill="none" xmlns="http://www.w3.org/2000/svg">
<path fill-rule="evenodd" clip-rule="evenodd" d="M43.0755 26.7101H49.1737C50.0519 26.7101 50.7837 26.1003 51.1739 25.1856C51.3691 24.7587 51.4664 24.3319 51.4664 23.844V23.2952V21.0388V6.64705V4.57366V3.78089C51.4664 3.29303 51.3691 2.86616 51.2713 2.43928C50.8322 1.0367 49.7104 0 48.4417 0H43.0753C41.9044 0 40.9287 1.09768 40.8311 2.50027C40.8311 2.62223 40.7823 2.74419 40.7823 2.86616V4.57366V6.64705V21.2827V23.6001V23.844C40.7823 24.4538 40.9289 25.0027 41.1729 25.4905C41.6119 26.2223 42.2949 26.7101 43.0755 26.7101Z" fill="#ECB603"/>
<path fill-rule="evenodd" clip-rule="evenodd" d="M23.2268 24.7237L22.7785 26.1328H19.1273V34.1392H23.0981H28.7349H31.1044H61.9769H64.2827H73.0574V33.7549V26.1328H69.4705L69.0225 24.7237C67.0369 18.1265 61.7844 11.4011 55.1235 8.00643V23.0584V25.172V25.4282C55.0594 26.1328 54.9313 26.7733 54.6111 27.4138C53.7781 29.0151 52.1131 30.168 50.1916 30.168H49.1668H42.1212C40.3274 30.168 38.7262 29.2072 37.8938 27.7981C37.5095 27.2217 37.3174 26.5812 37.1893 25.8766C37.1252 25.6204 37.1252 25.4282 37.1252 25.172V23.3786V7.94238C30.4642 11.3371 25.2124 18.1265 23.2268 24.7237Z" stroke="#607D8B" stroke-width="5"/>
<path fill-rule="evenodd" clip-rule="evenodd" d="M89.0389 88.7579C84.4913 88.7579 80.8083 85.075 80.8083 80.5277C80.8083 75.9798 84.4913 72.2969 89.0389 72.2969C93.5865 72.2969 97.2694 75.9798 97.2694 80.5277C97.2694 85.075 93.5865 88.7579 89.0389 88.7579Z" fill="#ECB603" stroke="#ECB603" stroke-width="5"/>
<path fill-rule="evenodd" clip-rule="evenodd" d="M119.495 83.1855V77.8536L108.399 75.852C107.902 73.7864 107.085 71.8648 106.013 70.1034L112.466 60.8801L108.686 57.1011L99.4314 63.5382C97.67 62.4654 95.7325 61.6487 93.6828 61.1684L91.7133 50.0879H86.3814L84.3798 61.1847C82.3141 61.6811 80.3926 62.4977 78.6312 63.5703L69.4079 57.1175L65.6289 60.8965L72.066 70.1518C70.9932 71.9132 70.1765 73.8507 69.6961 75.9L58.6154 77.8696V83.2018L69.7122 85.2034C70.2085 87.2687 71.0252 89.1903 72.0977 90.9517L65.6289 100.175L69.4079 103.954L78.6629 97.5169C80.4243 98.59 82.3622 99.4064 84.4115 99.8867L86.3811 110.968H91.713L93.7145 99.871C95.7802 99.3747 97.7017 98.5577 99.4631 97.4852L108.686 103.938L112.466 100.159L106.028 90.9039C107.101 89.1425 107.918 87.205 108.398 85.1554L119.495 83.1855Z" stroke="#607D8B" stroke-width="5"/>
<path fill-rule="evenodd" clip-rule="evenodd" d="M26.4932 50.1199C27.1014 55.356 29.2955 60.0154 32.498 63.4264C33.1705 64.147 33.8751 64.8035 34.6274 65.396C35.5881 66.1643 36.5969 66.8208 37.6698 67.3813C40.0877 68.6302 42.7461 69.3508 45.58 69.3508C48.414 69.3508 51.0724 68.6302 53.4903 67.3813C54.5632 66.8208 55.572 66.1643 56.5327 65.396C57.2853 64.7875 58.0059 64.1307 58.6784 63.4101C61.8646 59.9997 64.0587 55.3881 64.6669 50.1839C64.7309 50.1839 64.7793 50.2 64.8433 50.2C68.1736 50.2 70.8801 47.0935 70.8801 43.2665C70.8801 40.9446 69.8873 38.911 68.3661 37.646H23.8191C22.2979 38.911 21.3051 40.9446 21.3051 43.2665C21.3051 46.7892 23.5629 49.6555 26.4932 50.1199Z" stroke="#607D8B" stroke-width="5"/>
<path fill-rule="evenodd" clip-rule="evenodd" d="M81.3527 103.762C80.7923 103.41 79.0469 102.961 78.5665 102.593L68.7187 109.062L60.7124 101.056L67.5978 90.0874C67.3416 89.623 67.39 89.5429 67.1655 89.0465L54.4831 86.7884L54.5311 74.443L63.7862 72.8417L59.1748 68.3418C55.3318 71.4806 50.624 73.3378 45.5961 73.3378H45.58H45.564C40.8079 73.3378 36.3567 71.6728 32.6415 68.8542L27.9501 73.3378H18.7748C14.5474 73.3378 11.2328 74.7789 8.65477 77.7736C1.11279 86.4845 2.37747 105.251 2.97026 111H82.7295L81.3527 103.762Z" stroke="#607D8B" stroke-width="5"/>
</svg>
